<?xml version="1.0" encoding="utf-8" standalone="no"?>
<!DOCTYPE svg PUBLIC "-//W3C//DTD SVG 1.1//EN"
  "http://www.w3.org/Graphics/SVG/1.1/DTD/svg11.dtd">
<svg xmlns:xlink="http://www.w3.org/1999/xlink" width="381.6pt" height="604.8pt" viewBox="0 0 381.6 604.8" xmlns="http://www.w3.org/2000/svg" version="1.1">
 <metadata>
  <rdf:RDF xmlns:dc="http://purl.org/dc/elements/1.1/" xmlns:cc="http://creativecommons.org/ns#" xmlns:rdf="http://www.w3.org/1999/02/22-rdf-syntax-ns#">
   <cc:Work>
    <dc:type rdf:resource="http://purl.org/dc/dcmitype/StillImage"/>
    <dc:date>2026-10-09T14:45:04.499758</dc:date>
    <dc:format>image/svg+xml</dc:format>
    <dc:creator>
     <cc:Agent>
      <dc:title>Matplotlib v3.10.8, https://matplotlib.org/</dc:title>
     </cc:Agent>
    </dc:creator>
   </cc:Work>
  </rdf:RDF>
 </metadata>
 <defs>
  <style type="text/css">*{stroke-linejoin: round; stroke-linecap: butt}</style>
 </defs>
 <g id="figure_1">
  <g id="patch_1">
   <path d="M 0 604.8 
L 381.6 604.8 
L 381.6 0 
L 0 0 
z
" style="fill: #ffffff"/>
  </g>
  <g id="axes_1">
   <g id="patch_2">
    <path d="M 40.88399 265.1485 
L 378.59976 265.1485 
L 378.59976 18.878209 
L 40.88399 18.878209 
z
" style="fill: #ffffff"/>
   </g>
   <g id="matplotlib.axis_1">
    <g id="xtick_1">
     <g id="line2d_1">
      <defs>
       <path id="md68759e026" d="M 0 0 
L 0 3.5 
" style="stroke: #000000; stroke-width: 0.8"/>
      </defs>
      <g>
       <use xlink:href="#md68759e026" x="77.893937" y="265.1485" style="stroke: #000000; stroke-width: 0.8"/>
      </g>
     </g>
     <g id="text_1">
      <text style="font-size: 12px; font-family: 'DejaVu Sans'; text-anchor: middle" x="77.893937" y="281.266625" transform="rotate(-0 77.893937 281.266625)">No alert</text>
     </g>
    </g>
    <g id="xtick_2">
     <g id="line2d_2">
      <g>
       <use xlink:href="#md68759e026" x="309.206109" y="265.1485" style="stroke: #000000; stroke-width: 0.8"/>
      </g>
     </g>
     <g id="text_2">
      <text style="font-size: 12px; font-family: 'DejaVu Sans'; text-anchor: middle" x="309.206109" y="281.266625" transform="rotate(-0 309.206109 281.266625)">Alert</text>
     </g>
    </g>
    <g id="text_3">
     <text style="font-size: 12px; font-family: 'DejaVu Sans'; text-anchor: middle" x="209.741875" y="296.880375" transform="rotate(-0 209.741875 296.880375)">Observed status</text>
    </g>
   </g>
   <g id="matplotlib.axis_2">
    <g id="ytick_1">
     <g id="line2d_3">
      <path d="M 40.88399 245.833183 
L 378.59976 245.833183 
" clip-path="url(#p85a1410c9b)" style="fill: none; stroke: #b0b0b0; stroke-opacity: 0.18; stroke-width: 0.8; stroke-linecap: square"/>
     </g>
     <g id="line2d_4">
      <defs>
       <path id="m66db4666bb" d="M 0 0 
L -3.5 0 
" style="stroke: #000000; stroke-width: 0.8"/>
      </defs>
      <g>
       <use xlink:href="#m66db4666bb" x="40.88399" y="245.833183" style="stroke: #000000; stroke-width: 0.8"/>
      </g>
     </g>
     <g id="text_4">
      <text style="font-size: 12px; font-family: 'DejaVu Sans'; text-anchor: end" x="33.88399" y="250.392246" transform="rotate(-0 33.88399 250.392246)">9</text>
     </g>
    </g>
    <g id="ytick_2">
     <g id="line2d_5">
      <path d="M 40.88399 197.544891 
L 378.59976 197.544891 
" clip-path="url(#p85a1410c9b)" style="fill: none; stroke: #b0b0b0; stroke-opacity: 0.18; stroke-width: 0.8; stroke-linecap: square"/>
     </g>
     <g id="line2d_6">
      <g>
       <use xlink:href="#m66db4666bb" x="40.88399" y="197.544891" style="stroke: #000000; stroke-width: 0.8"/>
      </g>
     </g>
     <g id="text_5">
      <text style="font-size: 12px; font-family: 'DejaVu Sans'; text-anchor: end" x="33.88399" y="202.103953" transform="rotate(-0 33.88399 202.103953)">10</text>
     </g>
    </g>
    <g id="ytick_3">
     <g id="line2d_7">
      <path d="M 40.88399 149.256598 
L 378.59976 149.256598 
" clip-path="url(#p85a1410c9b)" style="fill: none; stroke: #b0b0b0; stroke-opacity: 0.18; stroke-width: 0.8; stroke-linecap: square"/>
     </g>
     <g id="line2d_8">
      <g>
       <use xlink:href="#m66db4666bb" x="40.88399" y="149.256598" style="stroke: #000000; stroke-width: 0.8"/>
      </g>
     </g>
     <g id="text_6">
      <text style="font-size: 12px; font-family: 'DejaVu Sans'; text-anchor: end" x="33.88399" y="153.815661" transform="rotate(-0 33.88399 153.815661)">11</text>
     </g>
    </g>
    <g id="ytick_4">
     <g id="line2d_9">
      <path d="M 40.88399 100.968306 
L 378.59976 100.968306 
" clip-path="url(#p85a1410c9b)" style="fill: none; stroke: #b0b0b0; stroke-opacity: 0.18; stroke-width: 0.8; stroke-linecap: square"/>
     </g>
     <g id="line2d_10">
      <g>
       <use xlink:href="#m66db4666bb" x="40.88399" y="100.968306" style="stroke: #000000; stroke-width: 0.8"/>
      </g>
     </g>
     <g id="text_7">
      <text style="font-size: 12px; font-family: 'DejaVu Sans'; text-anchor: end" x="33.88399" y="105.527368" transform="rotate(-0 33.88399 105.527368)">12</text>
     </g>
    </g>
    <g id="ytick_5">
     <g id="line2d_11">
      <path d="M 40.88399 52.680013 
L 378.59976 52.680013 
" clip-path="url(#p85a1410c9b)" style="fill: none; stroke: #b0b0b0; stroke-opacity: 0.18; stroke-width: 0.8; stroke-linecap: square"/>
     </g>
     <g id="line2d_12">
      <g>
       <use xlink:href="#m66db4666bb" x="40.88399" y="52.680013" style="stroke: #000000; stroke-width: 0.8"/>
      </g>
     </g>
     <g id="text_8">
      <text style="font-size: 12px; font-family: 'DejaVu Sans'; text-anchor: end" x="33.88399" y="57.239076" transform="rotate(-0 33.88399 57.239076)">13</text>
     </g>
    </g>
    <g id="text_9">
     <text style="font-size: 12px; font-family: 'DejaVu Sans'; text-anchor: middle" x="12.118365" y="142.013354" transform="rotate(-90 12.118365 142.013354)">Peak load (MW)</text>
    </g>
   </g>
   <g id="line2d_13">
    <path d="M 77.893937 197.544891 
L 309.206109 100.968306 
" clip-path="url(#p85a1410c9b)" style="fill: none; stroke-dasharray: 1.5,2.475; stroke-dashoffset: 0; stroke: #000000; stroke-width: 1.5"/>
   </g>
   <g id="patch_3">
    <path d="M 40.88399 265.1485 
L 40.88399 18.878209 
" style="fill: none; stroke: #000000; stroke-width: 0.8; stroke-linejoin: miter; stroke-linecap: square"/>
   </g>
   <g id="patch_4">
    <path d="M 40.88399 265.1485 
L 378.59976 265.1485 
" style="fill: none; stroke: #000000; stroke-width: 0.8; stroke-linejoin: miter; stroke-linecap: square"/>
   </g>
   <g id="PathCollection_1">
    <defs>
     <path id="m2c8cf5d50a" d="M 0 4.031129 
C 1.069068 4.031129 2.094493 3.606384 2.850439 2.850439 
C 3.606384 2.094493 4.031129 1.069068 4.031129 0 
C 4.031129 -1.069068 3.606384 -2.094493 2.850439 -2.850439 
C 2.094493 -3.606384 1.069068 -4.031129 0 -4.031129 
C -1.069068 -4.031129 -2.094493 -3.606384 -2.850439 -2.850439 
C -3.606384 -2.094493 -4.031129 -1.069068 -4.031129 0 
C -4.031129 1.069068 -3.606384 2.094493 -2.850439 2.850439 
C -2.094493 3.606384 -1.069068 4.031129 0 4.031129 
z
" style="stroke: #000000; stroke-width: 1.5"/>
    </defs>
    <g clip-path="url(#p85a1410c9b)">
     <use xlink:href="#m2c8cf5d50a" x="77.893937" y="245.833183" style="fill: #ffffff; stroke: #000000; stroke-width: 1.5"/>
     <use xlink:href="#m2c8cf5d50a" x="77.893937" y="197.544891" style="fill: #ffffff; stroke: #000000; stroke-width: 1.5"/>
     <use xlink:href="#m2c8cf5d50a" x="77.893937" y="149.256598" style="fill: #ffffff; stroke: #000000; stroke-width: 1.5"/>
     <use xlink:href="#m2c8cf5d50a" x="309.206109" y="149.256598" style="fill: #ffffff; stroke: #000000; stroke-width: 1.5"/>
     <use xlink:href="#m2c8cf5d50a" x="309.206109" y="100.968306" style="fill: #ffffff; stroke: #000000; stroke-width: 1.5"/>
     <use xlink:href="#m2c8cf5d50a" x="309.206109" y="52.680013" style="fill: #ffffff; stroke: #000000; stroke-width: 1.5"/>
    </g>
   </g>
   <g id="text_10">
    <text style="font-size: 11px; font-family: 'DejaVu Sans'; text-anchor: start" x="94.085789" y="200.580203" transform="rotate(-0 94.085789 200.580203)">Mean 10</text>
   </g>
   <g id="text_11">
    <text style="font-size: 11px; font-family: 'DejaVu Sans'; text-anchor: start" x="209.741875" y="96.266235" transform="rotate(-0 209.741875 96.266235)">Mean 12</text>
   </g>
   <g id="text_12">
    <text style="font-weight: 700; font-size: 13px; font-family: 'DejaVu Sans'; text-anchor: start" x="40.88399" y="12.878209" transform="rotate(-0 40.88399 12.878209)">Same observed days</text>
   </g>
   <g id="PathCollection_2">
    <defs>
     <path id="mb935500f1d" d="M 0 2.738613 
C 0.726289 2.738613 1.422928 2.450055 1.936492 1.936492 
C 2.450055 1.422928 2.738613 0.726289 2.738613 0 
C 2.738613 -0.726289 2.450055 -1.422928 1.936492 -1.936492 
C 1.422928 -2.450055 0.726289 -2.738613 0 -2.738613 
C -0.726289 -2.738613 -1.422928 -2.450055 -1.936492 -1.936492 
C -2.450055 -1.422928 -2.738613 -0.726289 -2.738613 0 
C -2.738613 0.726289 -2.450055 1.422928 -1.936492 1.936492 
C -1.422928 2.450055 -0.726289 2.738613 0 2.738613 
z
" style="stroke: #000000"/>
    </defs>
    <g clip-path="url(#p85a1410c9b)">
     <use xlink:href="#mb935500f1d" x="77.893937" y="197.544891" style="stroke: #000000"/>
     <use xlink:href="#mb935500f1d" x="309.206109" y="100.968306" style="stroke: #000000"/>
    </g>
   </g>
  </g>
  <g id="axes_2">
   <g id="patch_5">
    <path d="M 40.88399 567.57226 
L 378.59976 567.57226 
L 378.59976 321.301969 
L 40.88399 321.301969 
z
" style="fill: #ffffff"/>
   </g>
   <g id="matplotlib.axis_3">
    <g id="xtick_3">
     <g id="line2d_14">
      <g>
       <use xlink:href="#md68759e026" x="60.986119" y="567.57226" style="stroke: #000000; stroke-width: 0.8"/>
      </g>
     </g>
     <g id="text_13">
      <text style="font-size: 12px; font-family: 'DejaVu Sans'; text-anchor: middle" x="60.986119" y="583.690385" transform="rotate(-0 60.986119 583.690385)">No alert</text>
     </g>
    </g>
    <g id="xtick_4">
     <g id="line2d_15">
      <g>
       <use xlink:href="#md68759e026" x="262.007411" y="567.57226" style="stroke: #000000; stroke-width: 0.8"/>
      </g>
     </g>
     <g id="text_14">
      <text style="font-size: 12px; font-family: 'DejaVu Sans'; text-anchor: middle" x="262.007411" y="583.690385" transform="rotate(-0 262.007411 583.690385)">Alert</text>
     </g>
    </g>
    <g id="text_15">
     <text style="font-size: 12px; font-family: 'DejaVu Sans'; text-anchor: middle" x="209.741875" y="599.304135" transform="rotate(-0 209.741875 599.304135)">Assigned status</text>
    </g>
   </g>
   <g id="matplotlib.axis_4">
    <g id="ytick_6">
     <g id="line2d_16">
      <path d="M 40.88399 548.256943 
L 378.59976 548.256943 
" clip-path="url(#p1ad00c8217)" style="fill: none; stroke: #b0b0b0; stroke-opacity: 0.18; stroke-width: 0.8; stroke-linecap: square"/>
     </g>
     <g id="line2d_17">
      <g>
       <use xlink:href="#m66db4666bb" x="40.88399" y="548.256943" style="stroke: #000000; stroke-width: 0.8"/>
      </g>
     </g>
     <g id="text_16">
      <text style="font-size: 12px; font-family: 'DejaVu Sans'; text-anchor: end" x="33.88399" y="552.816006" transform="rotate(-0 33.88399 552.816006)">9</text>
     </g>
    </g>
    <g id="ytick_7">
     <g id="line2d_18">
      <path d="M 40.88399 499.968651 
L 378.59976 499.968651 
" clip-path="url(#p1ad00c8217)" style="fill: none; stroke: #b0b0b0; stroke-opacity: 0.18; stroke-width: 0.8; stroke-linecap: square"/>
     </g>
     <g id="line2d_19">
      <g>
       <use xlink:href="#m66db4666bb" x="40.88399" y="499.968651" style="stroke: #000000; stroke-width: 0.8"/>
      </g>
     </g>
     <g id="text_17">
      <text style="font-size: 12px; font-family: 'DejaVu Sans'; text-anchor: end" x="33.88399" y="504.527713" transform="rotate(-0 33.88399 504.527713)">10</text>
     </g>
    </g>
    <g id="ytick_8">
     <g id="line2d_20">
      <path d="M 40.88399 451.680358 
L 378.59976 451.680358 
" clip-path="url(#p1ad00c8217)" style="fill: none; stroke: #b0b0b0; stroke-opacity: 0.18; stroke-width: 0.8; stroke-linecap: square"/>
     </g>
     <g id="line2d_21">
      <g>
       <use xlink:href="#m66db4666bb" x="40.88399" y="451.680358" style="stroke: #000000; stroke-width: 0.8"/>
      </g>
     </g>
     <g id="text_18">
      <text style="font-size: 12px; font-family: 'DejaVu Sans'; text-anchor: end" x="33.88399" y="456.239421" transform="rotate(-0 33.88399 456.239421)">11</text>
     </g>
    </g>
    <g id="ytick_9">
     <g id="line2d_22">
      <path d="M 40.88399 403.392066 
L 378.59976 403.392066 
" clip-path="url(#p1ad00c8217)" style="fill: none; stroke: #b0b0b0; stroke-opacity: 0.18; stroke-width: 0.8; stroke-linecap: square"/>
     </g>
     <g id="line2d_23">
      <g>
       <use xlink:href="#m66db4666bb" x="40.88399" y="403.392066" style="stroke: #000000; stroke-width: 0.8"/>
      </g>
     </g>
     <g id="text_19">
      <text style="font-size: 12px; font-family: 'DejaVu Sans'; text-anchor: end" x="33.88399" y="407.951128" transform="rotate(-0 33.88399 407.951128)">12</text>
     </g>
    </g>
    <g id="ytick_10">
     <g id="line2d_24">
      <path d="M 40.88399 355.103773 
L 378.59976 355.103773 
" clip-path="url(#p1ad00c8217)" style="fill: none; stroke: #b0b0b0; stroke-opacity: 0.18; stroke-width: 0.8; stroke-linecap: square"/>
     </g>
     <g id="line2d_25">
      <g>
       <use xlink:href="#m66db4666bb" x="40.88399" y="355.103773" style="stroke: #000000; stroke-width: 0.8"/>
      </g>
     </g>
     <g id="text_20">
      <text style="font-size: 12px; font-family: 'DejaVu Sans'; text-anchor: end" x="33.88399" y="359.662836" transform="rotate(-0 33.88399 359.662836)">13</text>
     </g>
    </g>
    <g id="text_21">
     <text style="font-size: 12px; font-family: 'DejaVu Sans'; text-anchor: middle" x="12.118365" y="444.437114" transform="rotate(-90 12.118365 444.437114)">Peak load (MW)</text>
    </g>
   </g>
   <g id="line2d_26">
    <path d="M 60.986119 403.392066 
L 262.007411 499.968651 
" clip-path="url(#p1ad00c8217)" style="fill: none; stroke: #000000; stroke-width: 1.8; stroke-linecap: square"/>
    <defs>
     <path id="me10585f07a" d="M 0 2 
C 0.530406 2 1.03916 1.789267 1.414214 1.414214 
C 1.789267 1.03916 2 0.530406 2 0 
C 2 -0.530406 1.789267 -1.03916 1.414214 -1.414214 
C 1.03916 -1.789267 0.530406 -2 0 -2 
C -0.530406 -2 -1.03916 -1.789267 -1.414214 -1.414214 
C -1.789267 -1.03916 -2 -0.530406 -2 0 
C -2 0.530406 -1.789267 1.03916 -1.414214 1.414214 
C -1.03916 1.789267 -0.530406 2 0 2 
z
" style="stroke: #000000"/>
    </defs>
    <g clip-path="url(#p1ad00c8217)">
     <use xlink:href="#me10585f07a" x="60.986119" y="403.392066" style="stroke: #000000"/>
     <use xlink:href="#me10585f07a" x="262.007411" y="499.968651" style="stroke: #000000"/>
    </g>
   </g>
   <g id="line2d_27">
    <path d="M 60.986119 451.680358 
L 262.007411 451.680358 
" clip-path="url(#p1ad00c8217)" style="fill: none; stroke-dasharray: 6.66,2.88; stroke-dashoffset: 0; stroke: #000000; stroke-width: 1.8"/>
    <g clip-path="url(#p1ad00c8217)">
     <use xlink:href="#me10585f07a" x="60.986119" y="451.680358" style="stroke: #000000"/>
     <use xlink:href="#me10585f07a" x="262.007411" y="451.680358" style="stroke: #000000"/>
    </g>
   </g>
   <g id="line2d_28">
    <path d="M 60.986119 499.968651 
L 262.007411 403.392066 
" clip-path="url(#p1ad00c8217)" style="fill: none; stroke-dasharray: 1.8,2.97; stroke-dashoffset: 0; stroke: #000000; stroke-width: 1.8"/>
    <g clip-path="url(#p1ad00c8217)">
     <use xlink:href="#me10585f07a" x="60.986119" y="499.968651" style="stroke: #000000"/>
     <use xlink:href="#me10585f07a" x="262.007411" y="403.392066" style="stroke: #000000"/>
    </g>
   </g>
   <g id="patch_6">
    <path d="M 40.88399 567.57226 
L 40.88399 321.301969 
" style="fill: none; stroke: #000000; stroke-width: 0.8; stroke-linejoin: miter; stroke-linecap: square"/>
   </g>
   <g id="patch_7">
    <path d="M 40.88399 567.57226 
L 378.59976 567.57226 
" style="fill: none; stroke: #000000; stroke-width: 0.8; stroke-linejoin: miter; stroke-linecap: square"/>
   </g>
   <g id="text_22">
    <text style="font-size: 11px; font-family: 'DejaVu Sans'; text-anchor: start" x="276.078901" y="503.003963" transform="rotate(-0 276.078901 503.003963)">b = -2 MW</text>
   </g>
   <g id="text_23">
    <text style="font-size: 11px; font-family: 'DejaVu Sans'; text-anchor: start" x="276.078901" y="454.715671" transform="rotate(-0 276.078901 454.715671)">b = +0 MW</text>
   </g>
   <g id="text_24">
    <text style="font-size: 11px; font-family: 'DejaVu Sans'; text-anchor: start" x="276.078901" y="406.427378" transform="rotate(-0 276.078901 406.427378)">b = +2 MW</text>
   </g>
   <g id="text_25">
    <text style="font-weight: 700; font-size: 13px; font-family: 'DejaVu Sans'; text-anchor: start" x="40.88399" y="315.301969" transform="rotate(-0 40.88399 315.301969)">Different assignment responses</text>
   </g>
  </g>
 </g>
 <defs>
  <clipPath id="p85a1410c9b">
   <rect x="40.88399" y="18.878209" width="337.71577" height="246.270291"/>
  </clipPath>
  <clipPath id="p1ad00c8217">
   <rect x="40.88399" y="321.301969" width="337.71577" height="246.270291"/>
  </clipPath>
 </defs>
</svg>
