ISO-10303-21;
HEADER;
FILE_DESCRIPTION(('ViewDefinition [CoordinationView]','Invented example, not a real building'),'2;1');
FILE_NAME('example-pavilion.ifc','2026-09-13T00:00:00',('Property Lab'),('Example only'),'Property Lab example generator','Property Lab','');
FILE_SCHEMA(('IFC4'));
ENDSEC;
DATA;
#1=IFCCARTESIANPOINT((0.,0.,0.));
#2=IFCDIRECTION((0.,0.,1.));
#3=IFCDIRECTION((1.,0.,0.));
#4=IFCAXIS2PLACEMENT3D(#1,#2,#3);
#5=IFCLOCALPLACEMENT($,#4);
#6=IFCCARTESIANPOINT((0.,0.));
#7=IFCAXIS2PLACEMENT2D(#6,$);
#8=IFCGEOMETRICREPRESENTATIONCONTEXT($,'Model',3,1.E-5,#4,$);
#9=IFCSIUNIT(*,.LENGTHUNIT.,$,.METRE.);
#10=IFCUNITASSIGNMENT((#9));
#11=IFCPROJECT('0000000000000000000001',$,'Invented example pavilion','Example model — not a St. Louis building',$,$,$,(#8),#10);
#12=IFCBUILDING('0000000000000000000002',$,'Example pavilion',$,$,#5,$,$,.ELEMENT.,$,$,$);
#13=IFCBUILDINGSTOREY('0000000000000000000003',$,'Example level',$,$,#5,$,$,.ELEMENT.,0.);
#14=IFCRELAGGREGATES('0000000000000000000004',$,$,$,#11,(#12));
#15=IFCRELAGGREGATES('0000000000000000000005',$,$,$,#12,(#13));
#16=IFCCARTESIANPOINT((0.,0.,-0.25));
#17=IFCAXIS2PLACEMENT3D(#16,#2,#3);
#18=IFCLOCALPLACEMENT(#5,#17);
#19=IFCRECTANGLEPROFILEDEF(.AREA.,$,#7,12,8);
#20=IFCEXTRUDEDAREASOLID(#19,#4,#2,0.25);
#21=IFCSHAPEREPRESENTATION(#8,'Body','SweptSolid',(#20));
#22=IFCPRODUCTDEFINITIONSHAPE($,$,(#21));
#23=IFCSLAB('0000000000000000000006',$,'Ground slab',$,$,#18,#22,$,.FLOOR.);
#24=IFCCARTESIANPOINT((0.,3.8,0.));
#25=IFCAXIS2PLACEMENT3D(#24,#2,#3);
#26=IFCLOCALPLACEMENT(#5,#25);
#27=IFCRECTANGLEPROFILEDEF(.AREA.,$,#7,12,0.25);
#28=IFCEXTRUDEDAREASOLID(#27,#4,#2,3.2);
#29=IFCSHAPEREPRESENTATION(#8,'Body','SweptSolid',(#28));
#30=IFCPRODUCTDEFINITIONSHAPE($,$,(#29));
#31=IFCWALL('0000000000000000000007',$,'Rear wall',$,$,#26,#30,$,.STANDARD.);
#32=IFCCARTESIANPOINT((-5.8,0.,0.));
#33=IFCAXIS2PLACEMENT3D(#32,#2,#3);
#34=IFCLOCALPLACEMENT(#5,#33);
#35=IFCRECTANGLEPROFILEDEF(.AREA.,$,#7,0.25,7.6);
#36=IFCEXTRUDEDAREASOLID(#35,#4,#2,3.2);
#37=IFCSHAPEREPRESENTATION(#8,'Body','SweptSolid',(#36));
#38=IFCPRODUCTDEFINITIONSHAPE($,$,(#37));
#39=IFCWALL('0000000000000000000008',$,'West wall',$,$,#34,#38,$,.STANDARD.);
#40=IFCCARTESIANPOINT((1.,1.,0.));
#41=IFCAXIS2PLACEMENT3D(#40,#2,#3);
#42=IFCLOCALPLACEMENT(#5,#41);
#43=IFCRECTANGLEPROFILEDEF(.AREA.,$,#7,0.2,4.5);
#44=IFCEXTRUDEDAREASOLID(#43,#4,#2,2.6);
#45=IFCSHAPEREPRESENTATION(#8,'Body','SweptSolid',(#44));
#46=IFCPRODUCTDEFINITIONSHAPE($,$,(#45));
#47=IFCWALL('0000000000000000000009',$,'Interior screen',$,$,#42,#46,$,.PARTITIONING.);
#48=IFCCARTESIANPOINT((0.,0.,3.4));
#49=IFCAXIS2PLACEMENT3D(#48,#2,#3);
#50=IFCLOCALPLACEMENT(#5,#49);
#51=IFCRECTANGLEPROFILEDEF(.AREA.,$,#7,12.8,8.8);
#52=IFCEXTRUDEDAREASOLID(#51,#4,#2,0.22);
#53=IFCSHAPEREPRESENTATION(#8,'Body','SweptSolid',(#52));
#54=IFCPRODUCTDEFINITIONSHAPE($,$,(#53));
#55=IFCSLAB('0000000000000000000010',$,'Roof plate',$,$,#50,#54,$,.ROOF.);
#56=IFCCARTESIANPOINT((-5.3,-3.3,0.));
#57=IFCAXIS2PLACEMENT3D(#56,#2,#3);
#58=IFCLOCALPLACEMENT(#5,#57);
#59=IFCRECTANGLEPROFILEDEF(.AREA.,$,#7,0.28,0.28);
#60=IFCEXTRUDEDAREASOLID(#59,#4,#2,3.4);
#61=IFCSHAPEREPRESENTATION(#8,'Body','SweptSolid',(#60));
#62=IFCPRODUCTDEFINITIONSHAPE($,$,(#61));
#63=IFCCOLUMN('0000000000000000000011',$,'Front column -5.3',$,$,#58,#62,$,.COLUMN.);
#64=IFCCARTESIANPOINT((-1.8,-3.3,0.));
#65=IFCAXIS2PLACEMENT3D(#64,#2,#3);
#66=IFCLOCALPLACEMENT(#5,#65);
#67=IFCRECTANGLEPROFILEDEF(.AREA.,$,#7,0.28,0.28);
#68=IFCEXTRUDEDAREASOLID(#67,#4,#2,3.4);
#69=IFCSHAPEREPRESENTATION(#8,'Body','SweptSolid',(#68));
#70=IFCPRODUCTDEFINITIONSHAPE($,$,(#69));
#71=IFCCOLUMN('0000000000000000000012',$,'Front column -1.8',$,$,#66,#70,$,.COLUMN.);
#72=IFCCARTESIANPOINT((1.8,-3.3,0.));
#73=IFCAXIS2PLACEMENT3D(#72,#2,#3);
#74=IFCLOCALPLACEMENT(#5,#73);
#75=IFCRECTANGLEPROFILEDEF(.AREA.,$,#7,0.28,0.28);
#76=IFCEXTRUDEDAREASOLID(#75,#4,#2,3.4);
#77=IFCSHAPEREPRESENTATION(#8,'Body','SweptSolid',(#76));
#78=IFCPRODUCTDEFINITIONSHAPE($,$,(#77));
#79=IFCCOLUMN('0000000000000000000013',$,'Front column 1.8',$,$,#74,#78,$,.COLUMN.);
#80=IFCCARTESIANPOINT((5.3,-3.3,0.));
#81=IFCAXIS2PLACEMENT3D(#80,#2,#3);
#82=IFCLOCALPLACEMENT(#5,#81);
#83=IFCRECTANGLEPROFILEDEF(.AREA.,$,#7,0.28,0.28);
#84=IFCEXTRUDEDAREASOLID(#83,#4,#2,3.4);
#85=IFCSHAPEREPRESENTATION(#8,'Body','SweptSolid',(#84));
#86=IFCPRODUCTDEFINITIONSHAPE($,$,(#85));
#87=IFCCOLUMN('0000000000000000000014',$,'Front column 5.3',$,$,#82,#86,$,.COLUMN.);
#88=IFCRELCONTAINEDINSPATIALSTRUCTURE('0000000000000000000015',$,$,$,(#23,#31,#39,#47,#55,#63,#71,#79,#87),#13);
#89=IFCPROPERTYSINGLEVALUE('Evidence',$,IFCTEXT('Invented example — not a St. Louis building. No survey or construction use.'),$);
#90=IFCPROPERTYSINGLEVALUE('DesignNote',$,IFCTEXT('A small open pavilion made for trying element selection and category visibility.'),$);
#91=IFCPROPERTYSET('0000000000000000000016',$,'Example provenance',$,(#89,#90));
#92=IFCRELDEFINESBYPROPERTIES('0000000000000000000017',$,$,$,(#23,#31,#39,#47,#55,#63,#71,#79,#87),#91);
ENDSEC;
END-ISO-10303-21;
